<svg xmlns="http://www.w3.org/2000/svg" xmlns:xlink="http://www.w3.org/1999/xlink" width="1920" zoomAndPan="magnify" viewBox="0 0 1440 809.999993" height="1080" preserveAspectRatio="xMidYMid meet" version="1.0"><rect x="-144" width="1728" fill="#ffffff" y="-80.999999" height="971.999992" fill-opacity="1"/><rect x="-144" width="1728" fill="#ffffff" y="-80.999999" height="971.999992" fill-opacity="1"/><path fill="#4b4b4b" d="M 948.160156 535.351562 C 949.601562 535.339844 950.972656 535.023438 952.273438 534.398438 C 953.574219 533.773438 954.679688 532.902344 955.589844 531.78125 C 956.542969 530.679688 957.214844 529.429688 957.605469 528.027344 C 957.992188 526.625 958.0625 525.207031 957.808594 523.773438 L 942.371094 447.546875 C 943.289062 447.140625 944.121094 446.601562 944.871094 445.933594 C 945.621094 445.265625 946.25 444.5 946.757812 443.636719 C 947.269531 442.769531 947.636719 441.847656 947.859375 440.867188 C 948.082031 439.890625 948.148438 438.898438 948.0625 437.898438 L 940.632812 385.605469 C 940.121094 382.113281 939.441406 378.652344 938.585938 375.226562 C 937.730469 371.804688 936.707031 368.429688 935.511719 365.105469 C 934.320312 361.785156 932.96875 358.53125 931.449219 355.34375 C 929.933594 352.15625 928.261719 349.050781 926.4375 346.03125 C 924.609375 343.007812 922.636719 340.085938 920.519531 337.261719 C 918.402344 334.441406 916.148438 331.726562 913.757812 329.128906 C 911.371094 326.53125 908.859375 324.054688 906.222656 321.707031 C 903.589844 319.359375 900.84375 317.148438 897.988281 315.074219 L 893.835938 216.949219 C 893.765625 215.355469 893.660156 213.765625 893.515625 212.179688 C 893.367188 210.59375 893.183594 209.011719 892.964844 207.433594 C 892.742188 205.855469 892.484375 204.285156 892.1875 202.71875 C 891.890625 201.152344 891.558594 199.597656 891.1875 198.046875 C 890.816406 196.496094 890.410156 194.957031 889.964844 193.425781 C 889.519531 191.898438 889.039062 190.378906 888.523438 188.871094 C 888.007812 187.363281 887.453125 185.871094 886.867188 184.390625 C 886.277344 182.910156 885.65625 181.441406 885 179.992188 C 884.339844 178.539062 883.648438 177.105469 882.921875 175.6875 C 882.195312 174.269531 881.4375 172.871094 880.644531 171.488281 C 879.851562 170.105469 879.023438 168.742188 878.167969 167.402344 C 877.308594 166.058594 876.417969 164.738281 875.496094 163.4375 C 874.578125 162.136719 873.625 160.859375 872.644531 159.605469 C 871.660156 158.351562 870.648438 157.121094 869.609375 155.914062 C 868.566406 154.707031 867.5 153.527344 866.402344 152.371094 C 865.304688 151.21875 864.179688 150.089844 863.027344 148.988281 C 861.878906 147.886719 860.699219 146.8125 859.5 145.765625 C 858.296875 144.722656 857.070312 143.707031 855.820312 142.71875 C 854.570312 141.730469 853.292969 140.773438 852 139.847656 C 850.703125 138.921875 849.382812 138.027344 848.046875 137.164062 C 846.707031 136.300781 845.347656 135.472656 843.96875 134.671875 C 842.589844 133.875 841.191406 133.109375 839.777344 132.378906 C 838.363281 131.644531 836.929688 130.949219 835.480469 130.285156 C 834.03125 129.621094 832.570312 128.992188 831.089844 128.398438 C 829.613281 127.804688 828.121094 127.246094 826.613281 126.726562 C 825.109375 126.203125 823.59375 125.71875 822.066406 125.265625 C 820.535156 124.816406 819 124.402344 817.449219 124.027344 C 815.902344 123.652344 814.34375 123.3125 812.78125 123.007812 C 811.21875 122.707031 809.644531 122.441406 808.070312 122.214844 C 806.492188 121.988281 804.910156 121.796875 803.324219 121.648438 C 801.738281 121.496094 800.152344 121.378906 798.558594 121.304688 C 796.96875 121.230469 795.375 121.191406 793.78125 121.191406 C 792.1875 121.191406 790.597656 121.230469 789.003906 121.304688 C 787.414062 121.378906 785.824219 121.496094 784.238281 121.648438 C 782.652344 121.796875 781.070312 121.988281 779.496094 122.214844 C 777.917969 122.441406 776.347656 122.707031 774.78125 123.007812 C 773.21875 123.3125 771.660156 123.652344 770.113281 124.027344 C 768.566406 124.402344 767.027344 124.816406 765.5 125.265625 C 763.972656 125.71875 762.453125 126.203125 760.949219 126.726562 C 759.445312 127.246094 757.953125 127.804688 756.472656 128.398438 C 754.996094 128.992188 753.53125 129.621094 752.082031 130.285156 C 750.632812 130.949219 749.203125 131.644531 747.785156 132.378906 C 746.371094 133.109375 744.972656 133.875 743.59375 134.671875 C 742.21875 135.472656 740.859375 136.300781 739.519531 137.164062 C 738.179688 138.027344 736.863281 138.921875 735.566406 139.847656 C 734.269531 140.773438 732.996094 141.730469 731.746094 142.71875 C 730.492188 143.707031 729.265625 144.722656 728.066406 145.765625 C 726.863281 146.8125 725.6875 147.886719 724.535156 148.988281 C 723.382812 150.089844 722.261719 151.21875 721.164062 152.371094 C 720.066406 153.527344 718.996094 154.707031 717.957031 155.914062 C 716.914062 157.121094 715.902344 158.351562 714.921875 159.605469 C 713.9375 160.859375 712.988281 162.136719 712.066406 163.4375 C 711.144531 164.738281 710.253906 166.058594 709.398438 167.402344 C 708.539062 168.742188 707.714844 170.105469 706.921875 171.488281 C 706.128906 172.871094 705.367188 174.269531 704.640625 175.6875 C 703.914062 177.105469 703.222656 178.539062 702.566406 179.992188 C 701.90625 181.441406 701.285156 182.910156 700.695312 184.390625 C 700.109375 185.871094 699.558594 187.363281 699.039062 188.871094 C 698.523438 190.378906 698.042969 191.898438 697.597656 193.425781 C 697.15625 194.957031 696.746094 196.496094 696.378906 198.046875 C 696.007812 199.597656 695.671875 201.152344 695.375 202.71875 C 695.082031 204.285156 694.820312 205.855469 694.601562 207.433594 C 694.378906 209.011719 694.195312 210.59375 694.050781 212.179688 C 693.902344 213.765625 693.796875 215.355469 693.726562 216.949219 L 689.578125 314.6875 C 686.722656 316.761719 683.976562 318.972656 681.339844 321.320312 C 678.707031 323.671875 676.191406 326.144531 673.804688 328.742188 C 671.417969 331.34375 669.164062 334.054688 667.042969 336.878906 C 664.925781 339.703125 662.953125 342.625 661.128906 345.644531 C 659.300781 348.664062 657.628906 351.769531 656.113281 354.957031 C 654.597656 358.144531 653.242188 361.398438 652.050781 364.722656 C 650.859375 368.042969 649.835938 371.417969 648.980469 374.84375 C 648.125 378.265625 647.441406 381.726562 646.929688 385.21875 L 639.40625 437.515625 C 639.320312 438.515625 639.386719 439.503906 639.609375 440.484375 C 639.832031 441.460938 640.199219 442.382812 640.707031 443.25 C 641.21875 444.113281 641.847656 444.878906 642.597656 445.546875 C 643.347656 446.214844 644.179688 446.753906 645.097656 447.164062 L 629.757812 523.773438 C 629.476562 525.191406 629.515625 526.601562 629.871094 528.003906 C 630.222656 529.40625 630.863281 530.664062 631.78125 531.78125 C 632.714844 532.925781 633.847656 533.8125 635.183594 534.441406 C 636.523438 535.066406 637.929688 535.371094 639.40625 535.351562 C 639.398438 536.238281 639.4375 537.121094 639.511719 538.003906 C 639.589844 538.890625 639.703125 539.765625 639.863281 540.640625 C 640.019531 541.511719 640.214844 542.378906 640.453125 543.230469 C 640.6875 544.085938 640.964844 544.929688 641.277344 545.757812 C 641.589844 546.585938 641.941406 547.402344 642.332031 548.199219 C 642.71875 548.996094 643.144531 549.773438 643.605469 550.53125 C 644.0625 551.289062 644.558594 552.023438 645.085938 552.738281 C 645.613281 553.449219 646.171875 554.136719 646.765625 554.800781 C 647.355469 555.460938 647.972656 556.09375 648.625 556.699219 C 649.273438 557.300781 649.949219 557.875 650.648438 558.417969 C 651.351562 558.960938 652.078125 559.46875 652.824219 559.945312 C 653.574219 560.421875 654.34375 560.859375 655.132812 561.265625 C 655.921875 561.671875 656.726562 562.039062 657.550781 562.371094 C 658.371094 562.699219 659.207031 562.992188 660.058594 563.246094 C 660.90625 563.5 661.765625 563.714844 662.636719 563.890625 C 663.503906 564.066406 664.382812 564.199219 665.261719 564.296875 L 639.40625 697.542969 C 639.335938 697.894531 639.289062 698.25 639.261719 698.605469 C 639.230469 698.960938 639.222656 699.320312 639.234375 699.679688 C 639.246094 700.035156 639.277344 700.394531 639.328125 700.746094 C 639.378906 701.101562 639.449219 701.453125 639.539062 701.800781 C 639.628906 702.144531 639.738281 702.488281 639.863281 702.820312 C 639.992188 703.15625 640.140625 703.484375 640.304688 703.800781 C 640.46875 704.121094 640.648438 704.425781 640.847656 704.726562 C 641.046875 705.023438 641.261719 705.308594 641.492188 705.585938 C 641.722656 705.859375 641.964844 706.121094 642.226562 706.367188 C 642.484375 706.613281 642.757812 706.84375 643.042969 707.0625 C 643.328125 707.277344 643.625 707.476562 643.933594 707.660156 C 644.238281 707.84375 644.558594 708.011719 644.882812 708.160156 C 645.210938 708.308594 645.542969 708.4375 645.882812 708.550781 C 646.222656 708.660156 646.570312 708.753906 646.921875 708.824219 C 647.269531 708.898438 647.625 708.949219 647.980469 708.984375 C 648.339844 709.015625 648.695312 709.03125 649.054688 709.023438 L 698.648438 709.023438 C 698.921875 710.039062 699.238281 711.039062 699.597656 712.027344 C 699.953125 713.011719 700.351562 713.984375 700.785156 714.941406 C 701.222656 715.894531 701.699219 716.832031 702.210938 717.746094 C 702.722656 718.664062 703.273438 719.558594 703.859375 720.429688 C 704.445312 721.300781 705.0625 722.148438 705.71875 722.96875 C 706.375 723.789062 707.0625 724.582031 707.78125 725.347656 C 708.5 726.113281 709.25 726.847656 710.03125 727.550781 C 710.808594 728.253906 711.617188 728.925781 712.449219 729.5625 C 713.285156 730.199219 714.144531 730.804688 715.027344 731.371094 C 715.910156 731.9375 716.816406 732.46875 717.742188 732.964844 C 718.667969 733.457031 719.613281 733.914062 720.578125 734.328125 C 721.542969 734.746094 722.523438 735.121094 723.515625 735.460938 C 724.511719 735.796875 725.519531 736.09375 726.539062 736.347656 C 727.558594 736.601562 728.585938 736.8125 729.621094 736.984375 C 730.65625 737.15625 731.699219 737.28125 732.746094 737.367188 C 733.792969 737.453125 734.839844 737.496094 735.890625 737.496094 C 736.941406 737.496094 737.988281 737.453125 739.035156 737.367188 C 740.082031 737.28125 741.125 737.15625 742.160156 736.984375 C 743.195312 736.8125 744.222656 736.601562 745.242188 736.347656 C 746.261719 736.09375 747.269531 735.796875 748.265625 735.460938 C 749.257812 735.121094 750.238281 734.746094 751.203125 734.328125 C 752.167969 733.914062 753.113281 733.457031 754.039062 732.964844 C 754.964844 732.46875 755.871094 731.9375 756.753906 731.371094 C 757.636719 730.804688 758.496094 730.199219 759.332031 729.5625 C 760.164062 728.925781 760.972656 728.253906 761.75 727.550781 C 762.53125 726.847656 763.28125 726.113281 764 725.347656 C 764.71875 724.582031 765.40625 723.789062 766.0625 722.96875 C 766.71875 722.148438 767.335938 721.300781 767.921875 720.429688 C 768.507812 719.558594 769.058594 718.664062 769.570312 717.746094 C 770.085938 716.832031 770.558594 715.894531 770.996094 714.941406 C 771.429688 713.984375 771.828125 713.011719 772.183594 712.027344 C 772.542969 711.039062 772.859375 710.039062 773.132812 709.023438 L 814.429688 709.023438 C 814.707031 710.039062 815.023438 711.039062 815.378906 712.027344 C 815.734375 713.011719 816.132812 713.984375 816.570312 714.941406 C 817.003906 715.894531 817.480469 716.832031 817.992188 717.746094 C 818.503906 718.664062 819.054688 719.558594 819.640625 720.429688 C 820.226562 721.300781 820.847656 722.148438 821.5 722.96875 C 822.15625 723.789062 822.84375 724.582031 823.5625 725.347656 C 824.28125 726.113281 825.03125 726.847656 825.8125 727.550781 C 826.589844 728.253906 827.398438 728.925781 828.234375 729.5625 C 829.066406 730.199219 829.925781 730.804688 830.808594 731.371094 C 831.695312 731.9375 832.597656 732.46875 833.527344 732.964844 C 834.453125 733.457031 835.398438 733.914062 836.363281 734.328125 C 837.324219 734.746094 838.304688 735.125 839.300781 735.460938 C 840.292969 735.796875 841.300781 736.09375 842.320312 736.347656 C 843.339844 736.601562 844.367188 736.8125 845.402344 736.984375 C 846.441406 737.15625 847.480469 737.28125 848.527344 737.367188 C 849.574219 737.453125 850.625 737.496094 851.671875 737.496094 C 852.722656 737.496094 853.773438 737.453125 854.820312 737.367188 C 855.867188 737.28125 856.90625 737.15625 857.941406 736.984375 C 858.980469 736.8125 860.007812 736.601562 861.027344 736.347656 C 862.042969 736.09375 863.050781 735.796875 864.046875 735.460938 C 865.042969 735.125 866.019531 734.746094 866.984375 734.328125 C 867.949219 733.914062 868.894531 733.457031 869.820312 732.964844 C 870.746094 732.46875 871.652344 731.9375 872.535156 731.371094 C 873.421875 730.804688 874.277344 730.199219 875.113281 729.5625 C 875.949219 728.925781 876.753906 728.253906 877.535156 727.550781 C 878.3125 726.847656 879.0625 726.113281 879.78125 725.347656 C 880.503906 724.582031 881.191406 723.789062 881.84375 722.96875 C 882.5 722.148438 883.121094 721.300781 883.707031 720.429688 C 884.292969 719.558594 884.839844 718.664062 885.355469 717.746094 C 885.867188 716.832031 886.339844 715.894531 886.777344 714.941406 C 887.214844 713.984375 887.609375 713.011719 887.96875 712.027344 C 888.324219 711.039062 888.640625 710.039062 888.917969 709.023438 L 938.511719 709.023438 C 938.867188 709.03125 939.226562 709.015625 939.582031 708.984375 C 939.9375 708.949219 940.292969 708.898438 940.644531 708.824219 C 940.996094 708.753906 941.339844 708.660156 941.679688 708.550781 C 942.019531 708.4375 942.355469 708.308594 942.679688 708.160156 C 943.007812 708.011719 943.324219 707.84375 943.632812 707.660156 C 943.9375 707.476562 944.234375 707.277344 944.519531 707.0625 C 944.804688 706.84375 945.078125 706.613281 945.339844 706.367188 C 945.597656 706.121094 945.84375 705.859375 946.074219 705.585938 C 946.304688 705.308594 946.519531 705.023438 946.714844 704.726562 C 946.914062 704.425781 947.097656 704.121094 947.261719 703.800781 C 947.425781 703.484375 947.570312 703.15625 947.699219 702.820312 C 947.828125 702.488281 947.9375 702.144531 948.027344 701.800781 C 948.117188 701.453125 948.1875 701.101562 948.238281 700.746094 C 948.289062 700.394531 948.320312 700.035156 948.332031 699.679688 C 948.339844 699.320312 948.332031 698.960938 948.304688 698.605469 C 948.273438 698.25 948.226562 697.894531 948.160156 697.542969 L 922.300781 564.296875 C 923.183594 564.199219 924.058594 564.066406 924.925781 563.890625 C 925.796875 563.714844 926.65625 563.5 927.507812 563.246094 C 928.355469 562.992188 929.191406 562.699219 930.015625 562.371094 C 930.835938 562.039062 931.644531 561.671875 932.433594 561.265625 C 933.222656 560.859375 933.992188 560.421875 934.738281 559.945312 C 935.488281 559.46875 936.210938 558.960938 936.914062 558.417969 C 937.617188 557.875 938.292969 557.300781 938.941406 556.699219 C 939.589844 556.09375 940.210938 555.460938 940.800781 554.800781 C 941.390625 554.136719 941.949219 553.449219 942.476562 552.738281 C 943.003906 552.023438 943.5 551.289062 943.960938 550.53125 C 944.417969 549.773438 944.84375 548.996094 945.234375 548.199219 C 945.621094 547.402344 945.972656 546.585938 946.285156 545.757812 C 946.601562 544.929688 946.875 544.085938 947.113281 543.230469 C 947.347656 542.378906 947.542969 541.511719 947.703125 540.640625 C 947.859375 539.765625 947.976562 538.890625 948.050781 538.003906 C 948.128906 537.121094 948.164062 536.238281 948.160156 535.351562 Z M 713.023438 216.949219 C 713.085938 215.667969 713.179688 214.390625 713.300781 213.113281 C 713.425781 211.835938 713.578125 210.5625 713.765625 209.296875 C 713.949219 208.027344 714.160156 206.761719 714.40625 205.503906 C 714.648438 204.246094 714.921875 202.992188 715.226562 201.746094 C 715.53125 200.503906 715.863281 199.265625 716.226562 198.035156 C 716.589844 196.804688 716.980469 195.585938 717.402344 194.375 C 717.820312 193.164062 718.269531 191.960938 718.75 190.773438 C 719.226562 189.582031 719.730469 188.40625 720.265625 187.238281 C 720.800781 186.074219 721.359375 184.921875 721.949219 183.78125 C 722.539062 182.644531 723.152344 181.519531 723.792969 180.410156 C 724.4375 179.300781 725.105469 178.207031 725.796875 177.128906 C 726.492188 176.050781 727.210938 174.988281 727.957031 173.945312 C 728.699219 172.902344 729.46875 171.875 730.261719 170.867188 C 731.054688 169.859375 731.875 168.875 732.714844 167.90625 C 733.554688 166.9375 734.417969 165.988281 735.300781 165.0625 C 736.1875 164.132812 737.09375 163.226562 738.023438 162.34375 C 738.949219 161.460938 739.898438 160.597656 740.871094 159.757812 C 741.839844 158.921875 742.828125 158.105469 743.835938 157.3125 C 744.84375 156.519531 745.871094 155.753906 746.914062 155.011719 C 747.960938 154.265625 749.023438 153.550781 750.101562 152.855469 C 751.179688 152.164062 752.273438 151.496094 753.386719 150.855469 C 754.496094 150.214844 755.621094 149.601562 756.761719 149.015625 C 757.898438 148.429688 759.054688 147.867188 760.21875 147.335938 C 761.386719 146.804688 762.566406 146.300781 763.753906 145.824219 C 764.945312 145.347656 766.144531 144.902344 767.359375 144.480469 C 768.570312 144.0625 769.789062 143.671875 771.019531 143.3125 C 772.25 142.949219 773.488281 142.621094 774.734375 142.316406 C 775.980469 142.015625 777.234375 141.742188 778.492188 141.5 C 779.75 141.257812 781.015625 141.046875 782.285156 140.863281 C 783.554688 140.679688 784.828125 140.527344 786.101562 140.40625 C 787.378906 140.285156 788.65625 140.195312 789.9375 140.132812 C 791.21875 140.074219 792.5 140.042969 793.78125 140.042969 C 795.0625 140.042969 796.34375 140.074219 797.625 140.132812 C 798.90625 140.195312 800.183594 140.285156 801.460938 140.40625 C 802.738281 140.527344 804.011719 140.679688 805.28125 140.863281 C 806.546875 141.046875 807.8125 141.257812 809.070312 141.5 C 810.332031 141.742188 811.582031 142.015625 812.828125 142.316406 C 814.074219 142.621094 815.3125 142.949219 816.542969 143.3125 C 817.773438 143.671875 818.996094 144.0625 820.207031 144.480469 C 821.417969 144.902344 822.617188 145.347656 823.808594 145.824219 C 825 146.300781 826.179688 146.804688 827.34375 147.335938 C 828.511719 147.867188 829.664062 148.429688 830.804688 149.015625 C 831.945312 149.601562 833.070312 150.214844 834.179688 150.855469 C 835.289062 151.496094 836.382812 152.164062 837.464844 152.855469 C 838.542969 153.550781 839.605469 154.265625 840.648438 155.011719 C 841.695312 155.753906 842.71875 156.519531 843.726562 157.3125 C 844.738281 158.105469 845.726562 158.921875 846.695312 159.757812 C 847.664062 160.597656 848.613281 161.460938 849.542969 162.34375 C 850.46875 163.226562 851.375 164.132812 852.261719 165.0625 C 853.148438 165.988281 854.011719 166.9375 854.851562 167.90625 C 855.691406 168.875 856.507812 169.859375 857.300781 170.867188 C 858.09375 171.875 858.863281 172.902344 859.609375 173.945312 C 860.351562 174.988281 861.070312 176.050781 861.765625 177.128906 C 862.460938 178.207031 863.128906 179.300781 863.769531 180.410156 C 864.410156 181.519531 865.027344 182.644531 865.613281 183.78125 C 866.203125 184.921875 866.765625 186.074219 867.296875 187.238281 C 867.832031 188.40625 868.335938 189.582031 868.816406 190.773438 C 869.292969 191.960938 869.742188 193.164062 870.164062 194.375 C 870.582031 195.585938 870.976562 196.804688 871.335938 198.035156 C 871.699219 199.265625 872.03125 200.503906 872.335938 201.746094 C 872.640625 202.992188 872.914062 204.246094 873.15625 205.503906 C 873.402344 206.761719 873.617188 208.027344 873.800781 209.296875 C 873.984375 210.5625 874.136719 211.835938 874.261719 213.113281 C 874.382812 214.390625 874.476562 215.667969 874.539062 216.949219 L 878.207031 303.785156 C 871.519531 300.683594 864.582031 298.324219 857.394531 296.695312 C 850.207031 295.070312 842.929688 294.21875 835.558594 294.136719 L 832.375 294.136719 L 832.375 265.191406 C 835.335938 261.890625 837.984375 258.359375 840.320312 254.597656 C 842.660156 250.832031 844.652344 246.890625 846.296875 242.777344 C 847.941406 238.664062 849.21875 234.4375 850.121094 230.097656 C 851.023438 225.761719 851.539062 221.378906 851.671875 216.949219 C 851.671875 215.050781 851.582031 213.160156 851.394531 211.273438 C 851.207031 209.386719 850.929688 207.511719 850.5625 205.652344 C 850.191406 203.792969 849.730469 201.957031 849.179688 200.144531 C 848.628906 198.328125 847.992188 196.546875 847.265625 194.792969 C 846.539062 193.042969 845.730469 191.332031 844.835938 189.65625 C 843.945312 187.984375 842.96875 186.363281 841.917969 184.785156 C 840.863281 183.207031 839.734375 181.6875 838.53125 180.222656 C 837.328125 178.757812 836.058594 177.351562 834.71875 176.011719 C 833.375 174.671875 831.972656 173.398438 830.507812 172.199219 C 829.042969 170.996094 827.519531 169.867188 825.945312 168.8125 C 824.367188 167.757812 822.742188 166.785156 821.070312 165.890625 C 819.398438 165 817.6875 164.1875 815.9375 163.464844 C 814.183594 162.738281 812.402344 162.101562 810.585938 161.550781 C 808.773438 161 806.933594 160.539062 805.074219 160.167969 C 803.214844 159.800781 801.34375 159.519531 799.457031 159.335938 C 797.570312 159.148438 795.679688 159.054688 793.78125 159.054688 C 791.886719 159.054688 789.996094 159.148438 788.109375 159.335938 C 786.222656 159.519531 784.347656 159.800781 782.488281 160.167969 C 780.628906 160.539062 778.792969 161 776.976562 161.550781 C 775.164062 162.101562 773.378906 162.738281 771.628906 163.464844 C 769.875 164.1875 768.164062 165 766.492188 165.890625 C 764.820312 166.785156 763.195312 167.757812 761.621094 168.8125 C 760.042969 169.867188 758.523438 170.996094 757.054688 172.199219 C 755.589844 173.398438 754.1875 174.671875 752.847656 176.011719 C 751.507812 177.351562 750.234375 178.757812 749.03125 180.222656 C 747.828125 181.6875 746.699219 183.207031 745.648438 184.785156 C 744.59375 186.363281 743.621094 187.984375 742.726562 189.65625 C 741.832031 191.332031 741.023438 193.042969 740.296875 194.792969 C 739.570312 196.546875 738.933594 198.328125 738.382812 200.144531 C 737.832031 201.957031 737.371094 203.792969 737.003906 205.652344 C 736.632812 207.511719 736.355469 209.386719 736.167969 211.273438 C 735.984375 213.160156 735.890625 215.050781 735.890625 216.949219 C 736.023438 221.378906 736.542969 225.761719 737.445312 230.097656 C 738.347656 234.4375 739.621094 238.664062 741.265625 242.777344 C 742.914062 246.890625 744.90625 250.832031 747.242188 254.597656 C 749.582031 258.359375 752.230469 261.890625 755.1875 265.191406 L 755.1875 294.136719 L 751.90625 294.136719 C 744.574219 294.164062 737.324219 294.953125 730.152344 296.496094 C 722.984375 298.039062 716.050781 300.308594 709.355469 303.300781 Z M 819.640625 313.433594 C 818.402344 315.949219 816.890625 318.289062 815.097656 320.445312 C 813.304688 322.601562 811.285156 324.519531 809.035156 326.199219 C 806.789062 327.875 804.375 329.265625 801.796875 330.371094 C 799.21875 331.476562 796.546875 332.261719 793.78125 332.730469 C 791.015625 332.261719 788.34375 331.476562 785.765625 330.371094 C 783.1875 329.265625 780.773438 327.875 778.527344 326.199219 C 776.28125 324.519531 774.257812 322.601562 772.46875 320.445312 C 770.675781 318.289062 769.160156 315.949219 767.925781 313.433594 Z M 774.484375 294.136719 L 774.484375 280.050781 C 775.984375 280.777344 777.519531 281.417969 779.089844 281.972656 C 780.660156 282.527344 782.257812 282.988281 783.882812 283.363281 C 785.503906 283.734375 787.144531 284.015625 788.800781 284.203125 C 790.457031 284.390625 792.117188 284.484375 793.78125 284.484375 C 795.449219 284.484375 797.109375 284.390625 798.765625 284.203125 C 800.417969 284.015625 802.058594 283.734375 803.683594 283.363281 C 805.304688 282.988281 806.902344 282.527344 808.472656 281.972656 C 810.046875 281.417969 811.582031 280.777344 813.078125 280.050781 L 813.078125 294.136719 Z M 793.78125 265.191406 C 776.414062 265.191406 761.074219 246.570312 756.539062 227.851562 C 759.257812 225.992188 762.105469 224.355469 765.085938 222.945312 C 768.0625 221.535156 771.132812 220.367188 774.292969 219.441406 C 777.457031 218.515625 780.671875 217.84375 783.941406 217.425781 C 787.207031 217.007812 790.488281 216.847656 793.78125 216.949219 C 797.074219 216.847656 800.355469 217.007812 803.625 217.425781 C 806.890625 217.84375 810.109375 218.515625 813.269531 219.441406 C 816.433594 220.367188 819.5 221.535156 822.480469 222.945312 C 825.457031 224.355469 828.304688 225.992188 831.023438 227.851562 C 826.492188 246.570312 811.148438 265.191406 793.78125 265.191406 Z M 757.214844 205.175781 C 757.855469 203.273438 758.640625 201.433594 759.570312 199.65625 C 760.496094 197.878906 761.558594 196.179688 762.753906 194.566406 C 763.945312 192.953125 765.257812 191.445312 766.683594 190.035156 C 768.113281 188.625 769.644531 187.335938 771.273438 186.167969 C 772.902344 184.996094 774.613281 183.960938 776.40625 183.054688 C 778.199219 182.152344 780.050781 181.394531 781.960938 180.777344 C 783.871094 180.164062 785.816406 179.699219 787.796875 179.390625 C 789.78125 179.078125 791.773438 178.921875 793.78125 178.921875 C 795.789062 178.921875 797.78125 179.078125 799.765625 179.390625 C 801.746094 179.699219 803.695312 180.164062 805.605469 180.777344 C 807.515625 181.394531 809.367188 182.152344 811.15625 183.054688 C 812.949219 183.960938 814.660156 184.996094 816.289062 186.167969 C 817.921875 187.335938 819.449219 188.625 820.878906 190.035156 C 822.308594 191.445312 823.617188 192.953125 824.8125 194.566406 C 826.003906 196.179688 827.066406 197.878906 827.996094 199.65625 C 828.921875 201.433594 829.707031 203.273438 830.351562 205.175781 C 827.46875 203.9375 824.535156 202.851562 821.542969 201.910156 C 818.550781 200.972656 815.519531 200.183594 812.449219 199.554688 C 809.378906 198.921875 806.28125 198.445312 803.164062 198.128906 C 800.042969 197.8125 796.917969 197.652344 793.78125 197.652344 C 790.648438 197.652344 787.519531 197.8125 784.398438 198.128906 C 781.28125 198.445312 778.1875 198.921875 775.113281 199.554688 C 772.042969 200.183594 769.011719 200.972656 766.023438 201.910156 C 763.03125 202.851562 760.09375 203.9375 757.214844 205.175781 Z M 666.035156 388.5 C 666.363281 386.046875 666.796875 383.613281 667.335938 381.195312 C 667.875 378.78125 668.511719 376.390625 669.253906 374.03125 C 669.996094 371.667969 670.835938 369.34375 671.777344 367.054688 C 672.71875 364.765625 673.753906 362.519531 674.886719 360.320312 C 676.019531 358.117188 677.246094 355.96875 678.5625 353.875 C 679.878906 351.777344 681.28125 349.742188 682.773438 347.765625 C 684.261719 345.789062 685.835938 343.882812 687.488281 342.039062 C 689.140625 340.199219 690.871094 338.429688 692.675781 336.738281 C 694.480469 335.042969 696.351562 333.429688 698.296875 331.898438 C 700.238281 330.363281 702.242188 328.914062 704.308594 327.554688 C 706.375 326.191406 708.496094 324.921875 710.671875 323.738281 C 712.847656 322.558594 715.070312 321.472656 717.335938 320.480469 C 719.605469 319.492188 721.910156 318.597656 724.253906 317.804688 C 726.601562 317.011719 728.972656 316.320312 731.378906 315.730469 C 733.78125 315.136719 736.207031 314.652344 738.652344 314.269531 C 741.09375 313.886719 743.550781 313.605469 746.023438 313.433594 C 746.878906 315.550781 747.847656 317.621094 748.917969 319.640625 C 749.992188 321.660156 751.164062 323.617188 752.4375 325.515625 C 753.710938 327.414062 755.078125 329.242188 756.542969 331 C 758.003906 332.757812 759.554688 334.4375 761.1875 336.035156 C 762.824219 337.632812 764.535156 339.140625 766.328125 340.5625 C 768.117188 341.984375 769.976562 343.3125 771.90625 344.539062 C 773.832031 345.769531 775.816406 346.898438 777.859375 347.921875 C 779.90625 348.949219 781.996094 349.867188 784.132812 350.675781 L 784.132812 361.675781 L 764.835938 361.675781 L 764.835938 380.972656 L 784.132812 380.972656 L 784.132812 419.566406 L 803.429688 419.566406 L 803.429688 380.972656 L 822.726562 380.972656 L 822.726562 361.675781 L 803.429688 361.675781 L 803.429688 350.675781 C 805.589844 349.882812 807.703125 348.976562 809.769531 347.960938 C 811.835938 346.945312 813.84375 345.824219 815.792969 344.601562 C 817.746094 343.378906 819.625 342.058594 821.441406 340.640625 C 823.253906 339.222656 824.988281 337.710938 826.644531 336.113281 C 828.300781 334.515625 829.871094 332.835938 831.351562 331.074219 C 832.835938 329.3125 834.222656 327.480469 835.515625 325.574219 C 836.804688 323.667969 837.996094 321.699219 839.085938 319.671875 C 840.171875 317.644531 841.152344 315.5625 842.023438 313.433594 C 844.480469 313.601562 846.921875 313.875 849.355469 314.253906 C 851.785156 314.628906 854.199219 315.109375 856.589844 315.691406 C 858.980469 316.273438 861.34375 316.953125 863.675781 317.738281 C 866.007812 318.519531 868.304688 319.402344 870.5625 320.378906 C 872.820312 321.355469 875.03125 322.429688 877.199219 323.59375 C 879.367188 324.761719 881.480469 326.015625 883.542969 327.363281 C 885.601562 328.707031 887.601562 330.136719 889.539062 331.652344 C 891.476562 333.167969 893.347656 334.765625 895.152344 336.441406 C 896.957031 338.113281 898.683594 339.863281 900.339844 341.683594 C 901.992188 343.507812 903.566406 345.394531 905.0625 347.351562 C 906.554688 349.304688 907.964844 351.320312 909.285156 353.394531 C 910.609375 355.472656 911.839844 357.597656 912.980469 359.777344 C 914.125 361.960938 915.171875 364.183594 916.125 366.453125 C 917.074219 368.722656 917.929688 371.027344 918.6875 373.367188 C 919.441406 375.710938 920.097656 378.078125 920.652344 380.476562 C 921.210938 382.875 921.660156 385.292969 922.011719 387.726562 L 924.230469 403.550781 L 793.78125 438.863281 L 663.816406 403.839844 Z M 661.019531 423.621094 L 791.273438 458.160156 C 792.945312 458.554688 794.617188 458.554688 796.289062 458.160156 L 926.546875 423.425781 L 927.703125 432.015625 L 793.78125 467.808594 L 659.859375 432.109375 Z M 663.816406 453.242188 L 685.523438 459.03125 L 674.527344 516.921875 L 651.175781 516.921875 Z M 658.703125 535.351562 L 670.761719 535.351562 L 668.929688 545 L 668.351562 545 C 667.71875 545 667.089844 544.9375 666.46875 544.8125 C 665.847656 544.691406 665.242188 544.507812 664.660156 544.265625 C 664.074219 544.023438 663.515625 543.722656 662.992188 543.371094 C 662.464844 543.019531 661.976562 542.621094 661.527344 542.171875 C 661.082031 541.726562 660.679688 541.238281 660.328125 540.710938 C 659.976562 540.183594 659.679688 539.628906 659.4375 539.042969 C 659.195312 538.457031 659.011719 537.855469 658.886719 537.230469 C 658.765625 536.609375 658.703125 535.984375 658.703125 535.351562 Z M 660.726562 689.726562 L 704.242188 463.566406 L 761.265625 478.808594 L 736.953125 689.726562 Z M 735.890625 718.671875 C 734.207031 718.664062 732.550781 718.4375 730.929688 717.992188 C 729.304688 717.550781 727.765625 716.90625 726.308594 716.058594 C 724.851562 715.210938 723.53125 714.191406 722.339844 713 C 721.152344 711.808594 720.136719 710.480469 719.296875 709.023438 L 752.484375 709.023438 C 751.644531 710.480469 750.628906 711.808594 749.441406 713 C 748.25 714.191406 746.929688 715.210938 745.472656 716.058594 C 744.019531 716.90625 742.476562 717.550781 740.851562 717.992188 C 739.230469 718.4375 737.574219 718.664062 735.890625 718.671875 Z M 756.34375 689.726562 L 780.082031 483.828125 L 791.273438 486.816406 C 792.945312 487.210938 794.617188 487.210938 796.289062 486.816406 L 807.484375 483.828125 L 831.21875 689.726562 Z M 851.671875 718.671875 C 849.988281 718.664062 848.335938 718.4375 846.710938 717.992188 C 845.085938 717.550781 843.546875 716.90625 842.089844 716.058594 C 840.636719 715.210938 839.3125 714.191406 838.125 713 C 836.933594 711.808594 835.917969 710.480469 835.078125 709.023438 L 868.269531 709.023438 C 867.425781 710.480469 866.410156 711.808594 865.222656 713 C 864.035156 714.191406 862.710938 715.210938 861.257812 716.058594 C 859.800781 716.90625 858.261719 717.550781 856.636719 717.992188 C 855.011719 718.4375 853.355469 718.664062 851.671875 718.671875 Z M 926.835938 689.726562 L 850.613281 689.726562 L 826.296875 478.808594 L 883.320312 463.566406 Z M 919.214844 545 L 918.632812 545 L 916.800781 535.351562 L 928.863281 535.351562 C 928.863281 535.984375 928.800781 536.609375 928.675781 537.230469 C 928.550781 537.855469 928.371094 538.457031 928.128906 539.042969 C 927.882812 539.628906 927.585938 540.183594 927.234375 540.710938 C 926.882812 541.238281 926.484375 541.726562 926.035156 542.171875 C 925.585938 542.621094 925.101562 543.019531 924.574219 543.371094 C 924.046875 543.722656 923.492188 544.023438 922.90625 544.265625 C 922.320312 544.507812 921.714844 544.691406 921.09375 544.8125 C 920.472656 544.9375 919.847656 545 919.214844 545 Z M 913.039062 516.054688 L 902.039062 458.160156 L 923.746094 452.371094 L 936.386719 516.054688 Z M 913.039062 516.054688 " fill-opacity="1" fill-rule="nonzero"/></svg>